Coordinates
version=1
nRows=8
nColumns=63
inDegrees=yes

Units are S.I. units (second, meters, Newtons, ...)
If the header above contains a line with 'inDegrees', this indicates whether rotational values are in degrees (yes) or radians (no).

endheader
time	pelvis_tilt	pelvis_list	pelvis_rotation	pelvis_tx	pelvis_ty	pelvis_tz	hip_flexion_r	hip_adduction_r	hip_rotation_r	knee_angle_r	knee_angle_r_beta	ankle_angle_r	subtalar_angle_r	mtp_angle_r	hip_flexion_l	hip_adduction_l	hip_rotation_l	knee_angle_l	knee_angle_l_beta	ankle_angle_l	subtalar_angle_l	mtp_angle_l	L5_S1_Flex_Ext	L5_S1_Lat_Bending	L5_S1_axial_rotation	L4_L5_Flex_Ext	L4_L5_Lat_Bending	L4_L5_axial_rotation	L3_L4_Flex_Ext	L3_L4_Lat_Bending	L3_L4_axial_rotation	L2_L3_Flex_Ext	L2_L3_Lat_Bending	L2_L3_axial_rotation	L1_L2_Flex_Ext	L1_L2_Lat_Bending	L1_L2_axial_rotation	L1_T12_Flex_Ext	L1_T12_Lat_Bending	L1_T12_axial_rotation	Abs_r3	Abs_r2	Abs_r1	Abs_t1	Abs_t2	neck_flexion	neck_bending	neck_rotation	arm_flex_r	arm_add_r	arm_rot_r	elbow_flex_r	pro_sup_r	wrist_flex_r	wrist_dev_r	arm_flex_l	arm_add_l	arm_rot_l	elbow_flex_l	pro_sup_l	wrist_flex_l	wrist_dev_l
0.000000	4.960679	-4.848559	93.355735	0.228470	1.107377	0.387634	-3.837951	5.142379	6.574602	1.071656	0.018704	22.661608	4.754462	0.000000	-3.083431	-6.571731	13.767869	1.502846	0.026230	21.166483	-15.710144	0.000000	-0.144215	0.575882	1.727904	-0.267821	0.765923	1.835898	-0.236930	1.400199	1.835898	-0.164823	1.400199	1.511916	-0.133918	1.174338	1.403922	-0.082404	0.892041	1.295928	-1.030112	6.514489	9.610081	0.000000	0.000000	21.659954	-3.202887	0.320068	14.583040	-3.525584	41.053525	31.698528	69.736439	1.222690	8.493897	27.523312	4.156970	108.548832	18.478505	13.592313	-4.197505	-3.960386
0.020833	4.476422	-5.435671	94.391503	0.226692	1.106636	0.389184	-3.058199	4.557269	4.359840	1.349316	0.023550	23.370312	6.535563	0.000000	-1.823389	-5.957088	12.720352	2.204190	0.038470	22.016723	-12.790617	0.000000	-0.135552	0.519881	1.429587	-0.251734	0.691442	1.518937	-0.222699	1.264038	1.518937	-0.154922	1.264038	1.250889	-0.125874	1.060141	1.161540	-0.077454	0.805296	1.072191	-0.968235	5.880997	7.950936	0.000000	0.000000	22.794113	-3.613881	0.061580	15.554624	-3.162617	45.251341	30.385438	64.584810	0.256709	6.528270	27.269881	3.648847	105.347406	18.758675	13.450432	-4.582786	-3.255604
0.041667	4.115544	-5.869216	95.189318	0.225259	1.106083	0.390311	-2.491570	4.117402	2.636925	1.547375	0.027007	23.928903	7.933746	0.000000	-0.884786	-5.496903	11.888697	2.717716	0.047433	22.715787	-10.504412	0.000000	-0.128506	0.478822	1.198554	-0.238648	0.636834	1.273464	-0.211122	1.164208	1.273464	-0.146869	1.164208	1.048735	-0.119330	0.976414	0.973825	-0.073428	0.741696	0.898916	-0.917902	5.416533	6.665999	0.000000	0.000000	23.627656	-3.916149	-0.123001	16.348082	-2.883413	48.745925	29.305780	60.298647	-0.484756	5.016143	27.045837	3.260325	102.855725	18.995394	13.398224	-4.866269	-2.659227
0.062500	3.865549	-6.166291	95.770438	0.224139	1.105694	0.391067	-2.112644	3.807600	1.355747	1.677304	0.029274	24.353779	8.990189	0.000000	-0.233261	-5.175081	11.254376	3.063844	0.053474	23.274936	-8.796195	0.000000	-0.122902	0.451203	1.028645	-0.228241	0.600101	1.092935	-0.201915	1.097056	1.092935	-0.140464	1.097056	0.900064	-0.114127	0.920094	0.835774	-0.070226	0.698914	0.771484	-0.877875	5.104104	5.721013	0.000000	0.000000	24.194191	-4.120930	-0.240430	16.978801	-2.680964	51.593298	28.440474	56.801860	-1.023129	3.909567	26.848849	2.978445	101.001798	19.190012	13.426432	-5.054862	-2.174931
0.083333	3.713943	-6.343994	96.156123	0.223300	1.105444	0.391503	-1.895999	3.612686	0.466194	1.750576	0.030553	24.661336	9.746067	0.000000	0.165550	-4.975526	10.798863	3.262994	0.056950	23.705430	-7.610630	0.000000	-0.118567	0.435522	0.913699	-0.220192	0.579244	0.970805	-0.194794	1.058929	0.970805	-0.135511	1.058929	0.799487	-0.110102	0.888117	0.742381	-0.067749	0.674624	0.685274	-0.846915	4.926714	5.081721	0.000000	0.000000	24.527323	-4.239466	-0.297461	17.462167	-2.548260	53.849482	27.770439	54.018358	-1.379833	3.160591	26.676586	2.790247	99.713635	19.343874	13.525799	-5.155475	-1.806396
0.104167	3.648228	-6.419423	96.367632	0.222711	1.105306	0.391673	-1.816215	3.517483	-0.081844	1.778661	0.031043	24.867970	10.242557	0.000000	0.346010	-4.882142	10.503632	3.335588	0.058217	24.018529	-6.892383	0.000000	-0.115329	0.430276	0.847558	-0.214178	0.572267	0.900531	-0.189474	1.046173	0.900531	-0.131810	1.046173	0.741614	-0.107095	0.877419	0.688641	-0.065899	0.666497	0.635669	-0.823784	4.867368	4.713866	0.000000	0.000000	24.660660	-4.282998	-0.300850	17.813566	-2.478292	55.570499	27.276595	51.872051	-1.576293	2.721266	26.526716	2.682772	98.919245	19.458327	13.687068	-5.175017	-1.557299
0.125000	3.655911	-6.409675	96.426223	0.222340	1.105257	0.391627	-1.847871	3.506814	-0.338480	1.773031	0.030945	24.990078	10.520838	0.000000	0.342481	-4.878833	10.350153	3.302045	0.057632	24.225493	-6.586118	0.000000	-0.113013	0.433963	0.824063	-0.209877	0.577170	0.875567	-0.185670	1.055137	0.875567	-0.129163	1.055137	0.721055	-0.104944	0.884936	0.669551	-0.064576	0.672208	0.618047	-0.807243	4.909071	4.583190	0.000000	0.000000	24.627808	-4.262768	-0.257351	18.048384	-2.464052	56.812372	26.939863	50.286849	-1.633932	2.543641	26.396910	2.643061	98.546640	19.534720	13.900981	-5.120397	-1.431319
0.145833	3.724495	-6.331847	96.353156	0.222155	1.105272	0.391419	-1.965546	3.565501	-0.353824	1.745159	0.030459	25.044057	10.622085	0.000000	0.189325	-4.949503	10.319901	3.182786	0.055550	24.337582	-6.636502	0.000000	-0.111447	0.445080	0.837053	-0.206968	0.591956	0.889369	-0.183096	1.082167	0.889369	-0.127373	1.082167	0.732421	-0.103490	0.907606	0.680105	-0.063681	0.689428	0.627790	-0.796054	5.034829	4.655437	0.000000	0.000000	24.462373	-4.190016	-0.173719	18.182008	-2.498530	57.631122	26.741163	49.186661	-1.574175	2.579768	26.284835	2.658153	98.523828	19.574397	14.158281	-4.998525	-1.432134
